<svg width="15" height="14" viewBox="0 0 15 14" fill="none" xmlns="http://www.w3.org/2000/svg">
<rect width="15" height="14" fill="#F5F5F5"/>
<g clip-path="url(#clip0_0_1)" filter="url(#filter0_d_0_1)">
<rect width="593.078" height="1516.47" transform="translate(-62 -9)" fill="white"/>
<g filter="url(#filter1_d_0_1)">
<g filter="url(#filter2_d_0_1)">
<rect x="-62" y="-9" width="593.078" height="32.9488" fill="white"/>
</g>
</g>
<g clip-path="url(#clip1_0_1)">
<g filter="url(#filter3_d_0_1)">
<path d="M18.5166 6.29107V8.70673H17.7029V5.66041H18.4659L18.5166 6.29107ZM18.404 7.07658H18.1787C18.1787 6.86448 18.2041 6.66928 18.2548 6.49097C18.3073 6.31078 18.3833 6.15499 18.4828 6.0236C18.5842 5.89034 18.709 5.78711 18.8573 5.71391C19.0055 5.6407 19.1773 5.6041 19.3725 5.6041C19.5076 5.6041 19.6315 5.62475 19.7441 5.66604C19.8567 5.70546 19.9534 5.76834 20.0341 5.85468C20.1167 5.93914 20.1805 6.04988 20.2256 6.1869C20.2706 6.32204 20.2931 6.4844 20.2931 6.67397V8.70673H19.4823V6.76407C19.4823 6.62517 19.4635 6.51818 19.426 6.44311C19.3884 6.36803 19.335 6.31547 19.2655 6.28544C19.1979 6.25541 19.1163 6.24039 19.0206 6.24039C18.9155 6.24039 18.8235 6.26198 18.7446 6.30515C18.6677 6.34832 18.6039 6.40838 18.5532 6.48534C18.5025 6.56042 18.465 6.64863 18.4406 6.74999C18.4162 6.85135 18.404 6.96021 18.404 7.07658ZM20.2171 6.98367L19.9271 7.02027C19.9271 6.82131 19.9515 6.63643 20.0003 6.46563C20.051 6.29483 20.1252 6.14467 20.2228 6.01516C20.3222 5.88565 20.4452 5.78523 20.5916 5.71391C20.738 5.6407 20.9069 5.6041 21.0984 5.6041C21.2448 5.6041 21.378 5.62569 21.4982 5.66886C21.6183 5.71015 21.7206 5.77678 21.805 5.86875C21.8914 5.95885 21.9571 6.0771 22.0021 6.2235C22.049 6.3699 22.0725 6.54915 22.0725 6.76125V8.70673H21.2588V6.76125C21.2588 6.62048 21.2401 6.51349 21.2025 6.44029C21.1669 6.36521 21.1143 6.3136 21.0449 6.28544C20.9773 6.25541 20.8966 6.24039 20.8027 6.24039C20.7051 6.24039 20.6197 6.2601 20.5465 6.29952C20.4733 6.33706 20.4123 6.38961 20.3635 6.45718C20.3147 6.52475 20.2781 6.60359 20.2537 6.69368C20.2293 6.7819 20.2171 6.87856 20.2171 6.98367ZM24.3446 8.01976V6.66271C24.3446 6.56511 24.3286 6.48158 24.2967 6.41214C24.2648 6.34081 24.2151 6.28544 24.1475 6.24602C24.0818 6.20661 23.9964 6.1869 23.8913 6.1869C23.8012 6.1869 23.7233 6.20285 23.6576 6.23476C23.5919 6.26479 23.5412 6.3089 23.5056 6.36709C23.4699 6.4234 23.4521 6.49003 23.4521 6.56699H22.6412C22.6412 6.43748 22.6713 6.31453 22.7313 6.19816C22.7914 6.08179 22.8787 5.9795 22.9932 5.89128C23.1077 5.80118 23.2437 5.7308 23.4014 5.68012C23.5609 5.62944 23.7393 5.6041 23.9363 5.6041C24.1728 5.6041 24.3831 5.64352 24.567 5.72235C24.7509 5.80118 24.8955 5.91943 25.0006 6.0771C25.1076 6.23476 25.1611 6.43184 25.1611 6.66834V7.97189C25.1611 8.13894 25.1714 8.27596 25.192 8.38295C25.2127 8.48806 25.2427 8.58003 25.2821 8.65886V8.70673H24.4628C24.4234 8.62414 24.3934 8.52091 24.3727 8.39703C24.354 8.27127 24.3446 8.14551 24.3446 8.01976ZM24.4516 6.85135L24.4572 7.31026H24.0039C23.8969 7.31026 23.804 7.32246 23.7252 7.34686C23.6463 7.37127 23.5816 7.40599 23.5309 7.45104C23.4802 7.49421 23.4427 7.54488 23.4183 7.60307C23.3958 7.66126 23.3845 7.72507 23.3845 7.79452C23.3845 7.86397 23.4005 7.92685 23.4324 7.98316C23.4643 8.03759 23.5103 8.08076 23.5703 8.11267C23.6304 8.1427 23.7008 8.15771 23.7815 8.15771C23.9035 8.15771 24.0095 8.13331 24.0996 8.08451C24.1897 8.03571 24.2592 7.97565 24.308 7.90432C24.3587 7.833 24.3849 7.76543 24.3868 7.70161L24.6008 8.0451C24.5707 8.12205 24.5295 8.20182 24.4769 8.28441C24.4262 8.367 24.3615 8.44489 24.2826 8.51809C24.2038 8.58942 24.109 8.64854 23.9983 8.69546C23.8875 8.74051 23.7561 8.76304 23.6041 8.76304C23.4108 8.76304 23.2353 8.72456 23.0776 8.6476C22.9218 8.56877 22.798 8.46084 22.706 8.32383C22.6159 8.18493 22.5708 8.02726 22.5708 7.85083C22.5708 7.69129 22.6009 7.54958 22.6609 7.4257C22.721 7.30182 22.8092 7.19765 22.9256 7.11318C23.0438 7.02684 23.1912 6.96209 23.3676 6.91892C23.544 6.87387 23.7486 6.85135 23.9814 6.85135H24.4516ZM26.58 6.31078V8.70673H25.7692V5.66041H26.5294L26.58 6.31078ZM26.4618 7.07658H26.2422C26.2422 6.85135 26.2713 6.64863 26.3295 6.46845C26.3876 6.28638 26.4693 6.13153 26.5744 6.0039C26.6795 5.87439 26.8043 5.77584 26.9489 5.70827C27.0953 5.63883 27.2586 5.6041 27.4387 5.6041C27.5814 5.6041 27.7118 5.62475 27.8301 5.66604C27.9483 5.70734 28.0497 5.77303 28.1342 5.86312C28.2205 5.95322 28.2862 6.07241 28.3312 6.22069C28.3782 6.36897 28.4016 6.55009 28.4016 6.76407V8.70673H27.5852V6.76125C27.5852 6.62611 27.5664 6.521 27.5288 6.44592C27.4913 6.37084 27.4359 6.31829 27.3627 6.28826C27.2914 6.25635 27.2032 6.24039 27.0981 6.24039C26.9892 6.24039 26.8944 6.26198 26.8137 6.30515C26.7349 6.34832 26.6692 6.40838 26.6166 6.48534C26.566 6.56042 26.5275 6.64863 26.5012 6.74999C26.4749 6.85135 26.4618 6.96021 26.4618 7.07658ZM30.9468 5.66041H31.6816V8.60537C31.6816 8.88316 31.6197 9.11872 31.4958 9.31205C31.3738 9.50725 31.203 9.65459 30.9834 9.75407C30.7638 9.85543 30.5085 9.90611 30.2176 9.90611C30.09 9.90611 29.9548 9.88921 29.8122 9.85543C29.6714 9.82164 29.5363 9.76909 29.4067 9.69776C29.2791 9.62644 29.1721 9.53634 29.0858 9.42748L29.4433 8.94885C29.5372 9.05772 29.6461 9.14218 29.7699 9.20224C29.8938 9.26418 30.0308 9.29515 30.181 9.29515C30.3274 9.29515 30.4513 9.26794 30.5526 9.21351C30.654 9.16095 30.7319 9.08306 30.7863 8.97982C30.8407 8.87847 30.868 8.75553 30.868 8.611V6.36427L30.9468 5.66041ZM28.8972 7.22017V7.16105C28.8972 6.9283 28.9253 6.71714 28.9816 6.52757C29.0398 6.33612 29.1214 6.17188 29.2266 6.03487C29.3335 5.89785 29.4631 5.7918 29.6151 5.71672C29.7671 5.64164 29.9389 5.6041 30.1303 5.6041C30.333 5.6041 30.5029 5.64164 30.6399 5.71672C30.7769 5.7918 30.8896 5.89879 30.9778 6.03768C31.066 6.1747 31.1345 6.33706 31.1833 6.52475C31.234 6.71057 31.2734 6.91422 31.3015 7.13571V7.26522C31.2734 7.47731 31.2312 7.6744 31.1748 7.85646C31.1185 8.03853 31.0444 8.19807 30.9524 8.33509C30.8605 8.47023 30.746 8.57534 30.6089 8.65042C30.4738 8.7255 30.3124 8.76304 30.1247 8.76304C29.937 8.76304 29.7671 8.72456 29.6151 8.6476C29.4649 8.57065 29.3364 8.46272 29.2294 8.32383C29.1224 8.18493 29.0398 8.02163 28.9816 7.83394C28.9253 7.64624 28.8972 7.44165 28.8972 7.22017ZM29.708 7.16105V7.22017C29.708 7.34593 29.7202 7.46324 29.7446 7.5721C29.769 7.68096 29.8065 7.77763 29.8572 7.86209C29.9098 7.94468 29.9745 8.00943 30.0515 8.05636C30.1303 8.1014 30.2232 8.12393 30.3302 8.12393C30.4785 8.12393 30.5996 8.09296 30.6934 8.03102C30.7873 7.9672 30.8576 7.87992 30.9046 7.76918C30.9515 7.65844 30.9787 7.53081 30.9862 7.38628V7.01746C30.9825 6.89921 30.9665 6.79316 30.9384 6.69931C30.9102 6.60359 30.8708 6.52194 30.8201 6.45437C30.7694 6.3868 30.7037 6.33424 30.623 6.2967C30.5423 6.25916 30.4466 6.24039 30.3358 6.24039C30.2289 6.24039 30.1359 6.26479 30.0571 6.3136C29.9802 6.36052 29.9154 6.42527 29.8629 6.50786C29.8122 6.59045 29.7737 6.68805 29.7474 6.80067C29.7211 6.91141 29.708 7.03153 29.708 7.16105ZM33.5708 8.12956C33.6703 8.12956 33.7585 8.11079 33.8354 8.07325C33.9124 8.03383 33.9725 7.9794 34.0156 7.90995C34.0607 7.83863 34.0841 7.7551 34.086 7.65938H34.849C34.8471 7.87335 34.7899 8.06387 34.6773 8.23092C34.5646 8.39609 34.4136 8.52654 34.224 8.62226C34.0344 8.71611 33.8223 8.76304 33.5877 8.76304C33.3512 8.76304 33.1447 8.72362 32.9683 8.64479C32.7937 8.56595 32.6483 8.45709 32.5319 8.31819C32.4155 8.17742 32.3282 8.01413 32.2701 7.82831C32.2119 7.64061 32.1828 7.43977 32.1828 7.2258V7.14415C32.1828 6.9283 32.2119 6.72747 32.2701 6.54165C32.3282 6.35395 32.4155 6.19065 32.5319 6.05176C32.6483 5.91099 32.7937 5.80118 32.9683 5.72235C33.1428 5.64352 33.3474 5.6041 33.5821 5.6041C33.8317 5.6041 34.0504 5.65197 34.2381 5.74769C34.4276 5.84342 34.5759 5.98043 34.6829 6.15875C34.7918 6.33518 34.8471 6.54446 34.849 6.78659H34.086C34.0841 6.68523 34.0626 6.59326 34.0213 6.51068C33.9819 6.42809 33.9237 6.3624 33.8467 6.3136C33.7716 6.26292 33.6787 6.23758 33.568 6.23758C33.4497 6.23758 33.3531 6.26292 33.278 6.3136C33.2029 6.3624 33.1447 6.42997 33.1034 6.51631C33.0621 6.60077 33.033 6.69743 33.0162 6.8063C33.0011 6.91329 32.9936 7.0259 32.9936 7.14415V7.2258C32.9936 7.34405 33.0011 7.45761 33.0162 7.56647C33.0312 7.67533 33.0593 7.772 33.1006 7.85646C33.1438 7.94092 33.2029 8.00756 33.278 8.05636C33.3531 8.10516 33.4507 8.12956 33.5708 8.12956ZM35.1897 7.21454V7.15541C35.1897 6.93206 35.2216 6.72653 35.2854 6.53883C35.3492 6.34926 35.4421 6.18502 35.5641 6.04613C35.6861 5.90723 35.8363 5.79931 36.0146 5.72235C36.1929 5.64352 36.3975 5.6041 36.6284 5.6041C36.8592 5.6041 37.0648 5.64352 37.245 5.72235C37.4251 5.79931 37.5762 5.90723 37.6982 6.04613C37.8221 6.18502 37.916 6.34926 37.9798 6.53883C38.0436 6.72653 38.0755 6.93206 38.0755 7.15541V7.21454C38.0755 7.43602 38.0436 7.64155 37.9798 7.83112C37.916 8.01882 37.8221 8.18305 37.6982 8.32383C37.5762 8.46272 37.4261 8.57065 37.2478 8.6476C37.0695 8.72456 36.8649 8.76304 36.634 8.76304C36.4031 8.76304 36.1976 8.72456 36.0174 8.6476C35.8391 8.57065 35.688 8.46272 35.5641 8.32383C35.4421 8.18305 35.3492 8.01882 35.2854 7.83112C35.2216 7.64155 35.1897 7.43602 35.1897 7.21454ZM36.0005 7.15541V7.21454C36.0005 7.34217 36.0118 7.46136 36.0343 7.5721C36.0568 7.68284 36.0925 7.78044 36.1413 7.86491C36.192 7.94749 36.2577 8.01225 36.3384 8.05917C36.4191 8.1061 36.5176 8.12956 36.634 8.12956C36.7466 8.12956 36.8433 8.1061 36.924 8.05917C37.0047 8.01225 37.0695 7.94749 37.1183 7.86491C37.1671 7.78044 37.2027 7.68284 37.2252 7.5721C37.2496 7.46136 37.2618 7.34217 37.2618 7.21454V7.15541C37.2618 7.03153 37.2496 6.91516 37.2252 6.8063C37.2027 6.69556 37.1661 6.59796 37.1154 6.51349C37.0666 6.42715 37.0019 6.35958 36.9212 6.31078C36.8405 6.26198 36.7429 6.23758 36.6284 6.23758C36.5139 6.23758 36.4163 6.26198 36.3356 6.31078C36.2567 6.35958 36.192 6.42715 36.1413 6.51349C36.0925 6.59796 36.0568 6.69556 36.0343 6.8063C36.0118 6.91516 36.0005 7.03153 36.0005 7.15541ZM40.3729 8.04228V4.3822H41.1894V8.70673H40.4546L40.3729 8.04228ZM38.4472 7.22017V7.16105C38.4472 6.9283 38.4734 6.71714 38.526 6.52757C38.5785 6.33612 38.6555 6.17188 38.7569 6.03487C38.8582 5.89785 38.983 5.7918 39.1313 5.71672C39.2796 5.64164 39.4485 5.6041 39.6381 5.6041C39.8164 5.6041 39.9722 5.64164 40.1055 5.71672C40.2406 5.7918 40.3551 5.89879 40.4489 6.03768C40.5447 6.1747 40.6216 6.33706 40.6798 6.52475C40.738 6.71057 40.7802 6.91422 40.8065 7.13571V7.26522C40.7802 7.47731 40.738 7.6744 40.6798 7.85646C40.6216 8.03853 40.5447 8.19807 40.4489 8.33509C40.3551 8.47023 40.2406 8.57534 40.1055 8.65042C39.9703 8.7255 39.8126 8.76304 39.6325 8.76304C39.4429 8.76304 39.274 8.72456 39.1257 8.6476C38.9793 8.57065 38.8554 8.46272 38.754 8.32383C38.6546 8.18493 38.5785 8.02163 38.526 7.83394C38.4734 7.64624 38.4472 7.44165 38.4472 7.22017ZM39.258 7.16105V7.22017C39.258 7.34593 39.2674 7.46324 39.2862 7.5721C39.3068 7.68096 39.3396 7.77763 39.3847 7.86209C39.4316 7.94468 39.4917 8.00943 39.5649 8.05636C39.64 8.1014 39.731 8.12393 39.838 8.12393C39.9769 8.12393 40.0914 8.09296 40.1815 8.03102C40.2716 7.9672 40.3401 7.87992 40.387 7.76918C40.4358 7.65844 40.464 7.53081 40.4715 7.38628V7.01746C40.4658 6.89921 40.4489 6.79316 40.4208 6.69931C40.3945 6.60359 40.3551 6.52194 40.3025 6.45437C40.2519 6.3868 40.188 6.33424 40.1111 6.2967C40.036 6.25916 39.9468 6.24039 39.8436 6.24039C39.7385 6.24039 39.6484 6.26479 39.5733 6.3136C39.4983 6.36052 39.4373 6.42527 39.3903 6.50786C39.3453 6.59045 39.3115 6.68805 39.289 6.80067C39.2683 6.91141 39.258 7.03153 39.258 7.16105ZM42.6788 5.66041V8.70673H41.8651V5.66041H42.6788ZM41.8144 4.86646C41.8144 4.74821 41.8557 4.6506 41.9383 4.57365C42.0209 4.49669 42.1316 4.45822 42.2705 4.45822C42.4075 4.45822 42.5173 4.49669 42.5999 4.57365C42.6844 4.6506 42.7266 4.74821 42.7266 4.86646C42.7266 4.9847 42.6844 5.08231 42.5999 5.15926C42.5173 5.23622 42.4075 5.2747 42.2705 5.2747C42.1316 5.2747 42.0209 5.23622 41.9383 5.15926C41.8557 5.08231 41.8144 4.9847 41.8144 4.86646ZM44.1428 6.31078V8.70673H43.332V5.66041H44.0921L44.1428 6.31078ZM44.0246 7.07658H43.8049C43.8049 6.85135 43.834 6.64863 43.8922 6.46845C43.9504 6.28638 44.0321 6.13153 44.1372 6.0039C44.2423 5.87439 44.3671 5.77584 44.5116 5.70827C44.658 5.63883 44.8213 5.6041 45.0015 5.6041C45.1442 5.6041 45.2746 5.62475 45.3929 5.66604C45.5111 5.70734 45.6125 5.77303 45.6969 5.86312C45.7833 5.95322 45.849 6.07241 45.894 6.22069C45.9409 6.36897 45.9644 6.55009 45.9644 6.76407V8.70673H45.1479V6.76125C45.1479 6.62611 45.1291 6.521 45.0916 6.44592C45.0541 6.37084 44.9987 6.31829 44.9255 6.28826C44.8542 6.25635 44.766 6.24039 44.6608 6.24039C44.552 6.24039 44.4572 6.26198 44.3765 6.30515C44.2977 6.34832 44.232 6.40838 44.1794 6.48534C44.1287 6.56042 44.0902 6.64863 44.064 6.74999C44.0377 6.85135 44.0246 6.96021 44.0246 7.07658ZM48.5096 5.66041H49.2444V8.60537C49.2444 8.88316 49.1825 9.11872 49.0586 9.31205C48.9366 9.50725 48.7658 9.65459 48.5462 9.75407C48.3266 9.85543 48.0713 9.90611 47.7804 9.90611C47.6527 9.90611 47.5176 9.88921 47.3749 9.85543C47.2342 9.82164 47.099 9.76909 46.9695 9.69776C46.8419 9.62644 46.7349 9.53634 46.6486 9.42748L47.0061 8.94885C47.1 9.05772 47.2088 9.14218 47.3327 9.20224C47.4566 9.26418 47.5936 9.29515 47.7438 9.29515C47.8902 9.29515 48.014 9.26794 48.1154 9.21351C48.2168 9.16095 48.2946 9.08306 48.3491 8.97982C48.4035 8.87847 48.4307 8.75553 48.4307 8.611V6.36427L48.5096 5.66041ZM46.4599 7.22017V7.16105C46.4599 6.9283 46.4881 6.71714 46.5444 6.52757C46.6026 6.33612 46.6842 6.17188 46.7893 6.03487C46.8963 5.89785 47.0258 5.7918 47.1779 5.71672C47.3299 5.64164 47.5016 5.6041 47.6931 5.6041C47.8958 5.6041 48.0657 5.64164 48.2027 5.71672C48.3397 5.7918 48.4523 5.89879 48.5405 6.03768C48.6287 6.1747 48.6973 6.33706 48.7461 6.52475C48.7967 6.71057 48.8362 6.91422 48.8643 7.13571V7.26522C48.8362 7.47731 48.7939 7.6744 48.7376 7.85646C48.6813 8.03853 48.6072 8.19807 48.5152 8.33509C48.4232 8.47023 48.3087 8.57534 48.1717 8.65042C48.0366 8.7255 47.8751 8.76304 47.6875 8.76304C47.4998 8.76304 47.3299 8.72456 47.1779 8.6476C47.0277 8.57065 46.8991 8.46272 46.7921 8.32383C46.6852 8.18493 46.6026 8.02163 46.5444 7.83394C46.4881 7.64624 46.4599 7.44165 46.4599 7.22017ZM47.2708 7.16105V7.22017C47.2708 7.34593 47.283 7.46324 47.3074 7.5721C47.3318 7.68096 47.3693 7.77763 47.42 7.86209C47.4725 7.94468 47.5373 8.00943 47.6142 8.05636C47.6931 8.1014 47.786 8.12393 47.893 8.12393C48.0413 8.12393 48.1623 8.09296 48.2562 8.03102C48.35 7.9672 48.4204 7.87992 48.4673 7.76918C48.5143 7.65844 48.5415 7.53081 48.549 7.38628V7.01746C48.5452 6.89921 48.5293 6.79316 48.5011 6.69931C48.473 6.60359 48.4335 6.52194 48.3829 6.45437C48.3322 6.3868 48.2665 6.33424 48.1858 6.2967C48.1051 6.25916 48.0094 6.24039 47.8986 6.24039C47.7916 6.24039 47.6987 6.26479 47.6199 6.3136C47.5429 6.36052 47.4782 6.42527 47.4256 6.50786C47.3749 6.59045 47.3365 6.68805 47.3102 6.80067C47.2839 6.91141 47.2708 7.03153 47.2708 7.16105ZM53.4957 7.63404C53.4957 7.56084 53.4845 7.49515 53.4619 7.43696C53.4413 7.3769 53.4019 7.32246 53.3437 7.27366C53.2855 7.22299 53.2038 7.17325 53.0987 7.12444C52.9936 7.07564 52.8575 7.02497 52.6905 6.97241C52.5047 6.91235 52.3282 6.84478 52.1612 6.7697C51.996 6.69462 51.8496 6.60734 51.722 6.50786C51.5962 6.40651 51.4967 6.28919 51.4235 6.15593C51.3522 6.02267 51.3166 5.86782 51.3166 5.69138C51.3166 5.52058 51.3541 5.36573 51.4292 5.22683C51.5043 5.08606 51.6094 4.96593 51.7445 4.86646C51.8796 4.7651 52.0392 4.68721 52.2231 4.63277C52.409 4.57834 52.6126 4.55113 52.8341 4.55113C53.1363 4.55113 53.4 4.60556 53.6252 4.71442C53.8505 4.82329 54.025 4.9725 54.1489 5.16208C54.2747 5.35165 54.3375 5.56844 54.3375 5.81245H53.4985C53.4985 5.69232 53.4732 5.58721 53.4225 5.49712C53.3737 5.40514 53.2986 5.33288 53.1973 5.28033C53.0978 5.22777 52.972 5.20149 52.82 5.20149C52.6736 5.20149 52.5516 5.22402 52.454 5.26906C52.3564 5.31223 52.2832 5.37136 52.2344 5.44644C52.1856 5.51964 52.1612 5.60223 52.1612 5.6942C52.1612 5.76364 52.1781 5.82652 52.2119 5.88283C52.2475 5.93914 52.3001 5.9917 52.3695 6.0405C52.439 6.0893 52.5244 6.13528 52.6257 6.17845C52.7271 6.22162 52.8444 6.26386 52.9777 6.30515C53.201 6.37272 53.3972 6.44874 53.5661 6.5332C53.7369 6.61766 53.8796 6.71245 53.994 6.81756C54.1085 6.92267 54.1949 7.04186 54.2531 7.17512C54.3113 7.30839 54.3403 7.45948 54.3403 7.62841C54.3403 7.80672 54.3056 7.96626 54.2362 8.10704C54.1667 8.24781 54.0663 8.367 53.9349 8.4646C53.8035 8.5622 53.6468 8.63634 53.4647 8.68702C53.2827 8.7377 53.079 8.76304 52.8538 8.76304C52.6511 8.76304 52.4512 8.73676 52.2541 8.6842C52.057 8.62977 51.8778 8.54812 51.7164 8.43926C51.5568 8.33039 51.4292 8.1915 51.3335 8.02257C51.2377 7.85365 51.1899 7.65375 51.1899 7.42288H52.0373C52.0373 7.55052 52.057 7.65844 52.0964 7.74666C52.1359 7.83488 52.1912 7.9062 52.2625 7.96063C52.3358 8.01506 52.4221 8.05448 52.5216 8.07888C52.6229 8.10328 52.7337 8.11548 52.8538 8.11548C53.0002 8.11548 53.1203 8.09484 53.2142 8.05354C53.3099 8.01225 53.3803 7.955 53.4253 7.8818C53.4723 7.8086 53.4957 7.72601 53.4957 7.63404ZM56.3562 5.66041V6.23476H54.5825V5.66041H56.3562ZM55.0217 4.90869H55.8325V7.78889C55.8325 7.87711 55.8438 7.94468 55.8663 7.9916C55.8907 8.03853 55.9264 8.07137 55.9733 8.09014C56.0202 8.10704 56.0794 8.11548 56.1507 8.11548C56.2014 8.11548 56.2464 8.11361 56.2858 8.10985C56.3271 8.10422 56.3618 8.09859 56.39 8.09296L56.3928 8.68983C56.3234 8.71236 56.2483 8.73019 56.1676 8.74333C56.0869 8.75647 55.9977 8.76304 55.9001 8.76304C55.7218 8.76304 55.566 8.73394 55.4327 8.67576C55.3014 8.61569 55.2 8.51997 55.1287 8.38858C55.0574 8.25719 55.0217 8.08451 55.0217 7.87054V4.90869ZM56.6152 7.21454V7.15541C56.6152 6.93206 56.6471 6.72653 56.711 6.53883C56.7748 6.34926 56.8677 6.18502 56.9897 6.04613C57.1117 5.90723 57.2618 5.79931 57.4402 5.72235C57.6185 5.64352 57.8231 5.6041 58.0539 5.6041C58.2848 5.6041 58.4903 5.64352 58.6705 5.72235C58.8507 5.79931 59.0018 5.90723 59.1238 6.04613C59.2477 6.18502 59.3415 6.34926 59.4053 6.53883C59.4692 6.72653 59.5011 6.93206 59.5011 7.15541V7.21454C59.5011 7.43602 59.4692 7.64155 59.4053 7.83112C59.3415 8.01882 59.2477 8.18305 59.1238 8.32383C59.0018 8.46272 58.8516 8.57065 58.6733 8.6476C58.495 8.72456 58.2904 8.76304 58.0596 8.76304C57.8287 8.76304 57.6232 8.72456 57.443 8.6476C57.2647 8.57065 57.1136 8.46272 56.9897 8.32383C56.8677 8.18305 56.7748 8.01882 56.711 7.83112C56.6471 7.64155 56.6152 7.43602 56.6152 7.21454ZM57.4261 7.15541V7.21454C57.4261 7.34217 57.4373 7.46136 57.4599 7.5721C57.4824 7.68284 57.5181 7.78044 57.5669 7.86491C57.6175 7.94749 57.6832 8.01225 57.7639 8.05917C57.8446 8.1061 57.9432 8.12956 58.0596 8.12956C58.1722 8.12956 58.2688 8.1061 58.3495 8.05917C58.4303 8.01225 58.495 7.94749 58.5438 7.86491C58.5926 7.78044 58.6283 7.68284 58.6508 7.5721C58.6752 7.46136 58.6874 7.34217 58.6874 7.21454V7.15541C58.6874 7.03153 58.6752 6.91516 58.6508 6.8063C58.6283 6.69556 58.5917 6.59796 58.541 6.51349C58.4922 6.42715 58.4274 6.35958 58.3467 6.31078C58.266 6.26198 58.1684 6.23758 58.0539 6.23758C57.9394 6.23758 57.8418 6.26198 57.7611 6.31078C57.6823 6.35958 57.6175 6.42715 57.5669 6.51349C57.5181 6.59796 57.4824 6.69556 57.4599 6.8063C57.4373 6.91516 57.4261 7.03153 57.4261 7.15541ZM60.8103 6.32486V8.70673H59.9994V5.66041H60.7624L60.8103 6.32486ZM61.7281 5.6407L61.714 6.39243C61.6746 6.3868 61.6267 6.3821 61.5704 6.37835C61.516 6.37272 61.4663 6.3699 61.4212 6.3699C61.3067 6.3699 61.2072 6.38492 61.1228 6.41495C61.0402 6.44311 60.9707 6.48534 60.9144 6.54165C60.86 6.59796 60.8187 6.66646 60.7905 6.74717C60.7643 6.82788 60.7493 6.91986 60.7455 7.02309L60.5822 6.97241C60.5822 6.77533 60.6019 6.5942 60.6413 6.42903C60.6807 6.26198 60.738 6.11651 60.8131 5.99263C60.89 5.86875 60.9839 5.77303 61.0946 5.70546C61.2054 5.63789 61.332 5.6041 61.4747 5.6041C61.5197 5.6041 61.5657 5.60786 61.6127 5.61536C61.6596 5.621 61.6981 5.62944 61.7281 5.6407ZM63.4568 8.76304C63.2203 8.76304 63.0082 8.7255 62.8205 8.65042C62.6328 8.57346 62.4732 8.46741 62.3419 8.33227C62.2123 8.19713 62.1129 8.0404 62.0434 7.86209C61.974 7.6819 61.9392 7.49045 61.9392 7.28774V7.17512C61.9392 6.94426 61.9721 6.7331 62.0378 6.54165C62.1035 6.3502 62.1973 6.18408 62.3193 6.04331C62.4432 5.90254 62.5934 5.79461 62.7698 5.71954C62.9462 5.64258 63.1452 5.6041 63.3667 5.6041C63.5825 5.6041 63.774 5.63976 63.941 5.71109C64.1081 5.78241 64.2479 5.88377 64.3605 6.01516C64.475 6.14655 64.5614 6.30421 64.6196 6.48815C64.6777 6.67022 64.7068 6.87293 64.7068 7.09629V7.43414H62.2855V6.89358H63.9101V6.83164C63.9101 6.71902 63.8894 6.6186 63.8481 6.53038C63.8087 6.44029 63.7486 6.36897 63.6679 6.31641C63.5872 6.26386 63.484 6.23758 63.3582 6.23758C63.2512 6.23758 63.1593 6.26104 63.0823 6.30796C63.0054 6.35489 62.9425 6.42058 62.8937 6.50505C62.8468 6.58951 62.8111 6.68899 62.7867 6.80348C62.7642 6.9161 62.7529 7.03998 62.7529 7.17512V7.28774C62.7529 7.40974 62.7698 7.52236 62.8036 7.62559C62.8393 7.72883 62.889 7.81798 62.9528 7.89306C63.0185 7.96814 63.0973 8.02633 63.1893 8.06762C63.2832 8.10891 63.3892 8.12956 63.5075 8.12956C63.6539 8.12956 63.7899 8.1014 63.9157 8.0451C64.0433 7.98691 64.1531 7.89963 64.2451 7.78326L64.6393 8.21121C64.5754 8.30318 64.4882 8.3914 64.3774 8.47586C64.2686 8.56032 64.1372 8.62977 63.9833 8.6842C63.8294 8.73676 63.6539 8.76304 63.4568 8.76304Z" fill="#545BE8"/>
</g>
<path d="M14.4342 0H0.088266C0.0395529 0 0 0.0397265 0 0.0887345V13.8876C0 13.9366 0.0395529 13.9764 0.088266 13.9764H14.4342C14.4829 13.9764 14.5222 13.9366 14.5222 13.8876V0.0887345C14.5222 0.0397265 14.4829 0 14.4342 0Z" fill="#545BE8"/>
<path d="M3.83815 3.07581V10.9006" stroke="white" stroke-width="1.26926"/>
<path d="M6.18285 3.07581V6.97339" stroke="white" stroke-width="1.26685"/>
<path d="M7.96899 3.07605V4.39992H10.2064L11.8294 7.75365H13.2908L10.9698 3.07605H7.96899Z" fill="white"/>
<path d="M8.63382 5.83466V11.0559" stroke="white" stroke-width="1.46628"/>
</g>
</g>
<defs>
<filter id="filter0_d_0_1" x="-66" y="-9" width="601.078" height="1524.47" filterUnits="userSpaceOnUse" color-interpolation-filters="sRGB">
<feFlood flood-opacity="0" result="BackgroundImageFix"/>
<feColorMatrix in="SourceAlpha" type="matrix" values="0 0 0 0 0 0 0 0 0 0 0 0 0 0 0 0 0 0 127 0" result="hardAlpha"/>
<feOffset dy="4"/>
<feGaussianBlur stdDeviation="2"/>
<feComposite in2="hardAlpha" operator="out"/>
<feColorMatrix type="matrix" values="0 0 0 0 0 0 0 0 0 0 0 0 0 0 0 0 0 0 0.25 0"/>
<feBlend mode="normal" in2="BackgroundImageFix" result="effect1_dropShadow_0_1"/>
<feBlend mode="normal" in="SourceGraphic" in2="effect1_dropShadow_0_1" result="shape"/>
</filter>
<filter id="filter1_d_0_1" x="-66" y="-9" width="601.078" height="40.9488" filterUnits="userSpaceOnUse" color-interpolation-filters="sRGB">
<feFlood flood-opacity="0" result="BackgroundImageFix"/>
<feColorMatrix in="SourceAlpha" type="matrix" values="0 0 0 0 0 0 0 0 0 0 0 0 0 0 0 0 0 0 127 0" result="hardAlpha"/>
<feOffset dy="4"/>
<feGaussianBlur stdDeviation="2"/>
<feComposite in2="hardAlpha" operator="out"/>
<feColorMatrix type="matrix" values="0 0 0 0 0 0 0 0 0 0 0 0 0 0 0 0 0 0 0.25 0"/>
<feBlend mode="normal" in2="BackgroundImageFix" result="effect1_dropShadow_0_1"/>
<feBlend mode="normal" in="SourceGraphic" in2="effect1_dropShadow_0_1" result="shape"/>
</filter>
<filter id="filter2_d_0_1" x="-70.2372" y="-15.5898" width="609.552" height="49.4232" filterUnits="userSpaceOnUse" color-interpolation-filters="sRGB">
<feFlood flood-opacity="0" result="BackgroundImageFix"/>
<feColorMatrix in="SourceAlpha" type="matrix" values="0 0 0 0 0 0 0 0 0 0 0 0 0 0 0 0 0 0 127 0" result="hardAlpha"/>
<feOffset dy="1.64744"/>
<feGaussianBlur stdDeviation="4.1186"/>
<feComposite in2="hardAlpha" operator="out"/>
<feColorMatrix type="matrix" values="0 0 0 0 0 0 0 0 0 0 0 0 0 0 0 0 0 0 0.1 0"/>
<feBlend mode="normal" in2="BackgroundImageFix" result="effect1_dropShadow_0_1"/>
<feBlend mode="normal" in="SourceGraphic" in2="effect1_dropShadow_0_1" result="shape"/>
</filter>
<filter id="filter3_d_0_1" x="13.7029" y="4.3822" width="55.0039" height="13.5239" filterUnits="userSpaceOnUse" color-interpolation-filters="sRGB">
<feFlood flood-opacity="0" result="BackgroundImageFix"/>
<feColorMatrix in="SourceAlpha" type="matrix" values="0 0 0 0 0 0 0 0 0 0 0 0 0 0 0 0 0 0 127 0" result="hardAlpha"/>
<feOffset dy="4"/>
<feGaussianBlur stdDeviation="2"/>
<feComposite in2="hardAlpha" operator="out"/>
<feColorMatrix type="matrix" values="0 0 0 0 0 0 0 0 0 0 0 0 0 0 0 0 0 0 0.25 0"/>
<feBlend mode="normal" in2="BackgroundImageFix" result="effect1_dropShadow_0_1"/>
<feBlend mode="normal" in="SourceGraphic" in2="effect1_dropShadow_0_1" result="shape"/>
</filter>
<clipPath id="clip0_0_1">
<rect width="593.078" height="1516.47" fill="white" transform="translate(-62 -9)"/>
</clipPath>
<clipPath id="clip1_0_1">
<rect width="65.8976" height="14.0032" fill="white"/>
</clipPath>
</defs>
</svg>
